<svg width="48" height="52" viewBox="0 0 48 52" fill="none" xmlns="http://www.w3.org/2000/svg">
<path d="M21 0.981934C17.8174 0.981934 14.7652 2.22323 12.5147 4.43275C10.2643 6.64227 9 9.63902 9 12.7638C9 15.8885 10.2643 18.8852 12.5147 21.0948C14.7652 23.3043 17.8174 24.5456 21 24.5456C24.1826 24.5456 27.2348 23.3043 29.4853 21.0948C31.7357 18.8852 33 15.8885 33 12.7638C33 9.63902 31.7357 6.64227 29.4853 4.43275C27.2348 2.22323 24.1826 0.981934 21 0.981934ZM12 12.7638C12 10.4202 12.9482 8.17264 14.636 6.5155C16.3239 4.85836 18.6131 3.92739 21 3.92739C23.3869 3.92739 25.6761 4.85836 27.364 6.5155C29.0518 8.17264 30 10.4202 30 12.7638C30 15.1073 29.0518 17.3549 27.364 19.012C25.6761 20.6691 23.3869 21.6001 21 21.6001C18.6131 21.6001 16.3239 20.6691 14.636 19.012C12.9482 17.3549 12 15.1073 12 12.7638ZM6.027 27.491C5.23691 27.4879 4.45397 27.638 3.72307 27.9326C2.99218 28.2272 2.32771 28.6606 1.76778 29.2079C1.20784 29.7552 0.763454 30.4056 0.460099 31.1219C0.156744 31.8382 0.000388536 32.6062 0 33.3819C0 38.3627 2.499 42.1182 6.405 44.5658C9.549 46.5334 13.59 47.6527 18 47.9914V45.0371C14.046 44.7013 10.596 43.691 8.019 42.0769C4.869 40.1064 3 37.2405 3 33.3819C3 31.7531 4.344 30.4365 6.027 30.4365H41.196C40.6694 29.541 39.912 28.7973 38.9999 28.2803C38.0878 27.7633 37.0532 27.491 36 27.491H6.027ZM48 37.8001V46.6365C48 47.8083 47.5259 48.932 46.682 49.7606C45.8381 50.5892 44.6935 51.0547 43.5 51.0547H25.5C24.3065 51.0547 23.1619 50.5892 22.318 49.7606C21.4741 48.932 21 47.8083 21 46.6365V37.8001C21 36.6283 21.4741 35.5046 22.318 34.676C23.1619 33.8474 24.3065 33.3819 25.5 33.3819H43.5C44.6935 33.3819 45.8381 33.8474 46.682 34.676C47.5259 35.5046 48 36.6283 48 37.8001ZM45 46.6365V43.691C43.8065 43.691 42.6619 44.1565 41.818 44.9851C40.9741 45.8136 40.5 46.9374 40.5 48.1092H43.5C43.5 47.7186 43.658 47.344 43.9393 47.0678C44.2206 46.7916 44.6022 46.6365 45 46.6365ZM45 37.8001C44.6022 37.8001 44.2206 37.645 43.9393 37.3688C43.658 37.0926 43.5 36.718 43.5 36.3274H40.5C40.5 37.4992 40.9741 38.6229 41.818 39.4515C42.6619 40.2801 43.8065 40.7456 45 40.7456V37.8001ZM25.5 36.3274C25.5 36.718 25.342 37.0926 25.0607 37.3688C24.7794 37.645 24.3978 37.8001 24 37.8001V40.7456C25.1935 40.7456 26.3381 40.2801 27.182 39.4515C28.0259 38.6229 28.5 37.4992 28.5 36.3274H25.5ZM24 46.6365C24.3978 46.6365 24.7794 46.7916 25.0607 47.0678C25.342 47.344 25.5 47.7186 25.5 48.1092H28.5C28.5 46.9374 28.0259 45.8136 27.182 44.9851C26.3381 44.1565 25.1935 43.691 24 43.691V46.6365ZM34.5 37.8001C33.3065 37.8001 32.1619 38.2656 31.318 39.0942C30.4741 39.9227 30 41.0465 30 42.2183C30 43.3901 30.4741 44.5138 31.318 45.3424C32.1619 46.171 33.3065 46.6365 34.5 46.6365C35.6935 46.6365 36.8381 46.171 37.682 45.3424C38.5259 44.5138 39 43.3901 39 42.2183C39 41.0465 38.5259 39.9227 37.682 39.0942C36.8381 38.2656 35.6935 37.8001 34.5 37.8001Z" fill="white"/>
</svg>
