<svg width="46" height="54" viewBox="0 0 46 54" fill="none" xmlns="http://www.w3.org/2000/svg">
<path d="M4.25 7.3125V8.25H6.125C6.62228 8.25 7.09919 8.05246 7.45082 7.70082C7.80246 7.34919 8 6.87228 8 6.375V4.5H7.0625C6.31658 4.5 5.60121 4.79632 5.07376 5.32376C4.54632 5.85121 4.25 6.56658 4.25 7.3125ZM7.0625 0.75H23.9375C27.56 0.75 30.5 3.69 30.5 7.3125V9.34875L41.6562 20.505C42.875 21.7239 43.8417 23.1708 44.5012 24.7633C45.1607 26.3558 45.5001 28.0626 45.5 29.7863V51.375C45.5 51.8723 45.3025 52.3492 44.9508 52.7008C44.5992 53.0525 44.1223 53.25 43.625 53.25C43.1277 53.25 42.6508 53.0525 42.2992 52.7008C41.9475 52.3492 41.75 51.8723 41.75 51.375V29.7863C41.7502 28.555 41.5079 27.3358 41.0369 26.1982C40.5659 25.0606 39.8755 24.027 39.005 23.1562L30.5 14.6512V24.345L33.7025 27.5475C34.0546 27.8991 34.2526 28.3761 34.2529 28.8737C34.2533 29.3712 34.056 29.8486 33.7044 30.2006C33.3528 30.5527 32.8758 30.7507 32.3782 30.751C31.8806 30.7514 31.4033 30.5541 31.0513 30.2025L27.365 26.5125C27.3205 26.4721 27.2779 26.4295 27.2375 26.385L22.6475 21.795C22.3923 21.5301 22.0868 21.3187 21.7489 21.1733C21.411 21.0278 21.0475 20.9512 20.6796 20.9478C20.3118 20.9445 19.9469 21.0146 19.6065 21.1539C19.266 21.2932 18.9567 21.499 18.6967 21.7593C18.4367 22.0195 18.2312 22.329 18.0922 22.6696C17.9532 23.0102 17.8835 23.3751 17.8872 23.7429C17.8909 24.1108 17.9679 24.4742 18.1137 24.812C18.2594 25.1497 18.4711 25.455 18.7362 25.71L24.3275 31.2975C24.5022 31.4716 24.6408 31.6785 24.7354 31.9063C24.83 32.1341 24.8787 32.3783 24.8788 32.625V36.375C24.8788 37.3689 25.2733 38.3222 25.9758 39.0253C26.6782 39.7285 27.6311 40.124 28.625 40.125C29.1223 40.125 29.5992 40.3225 29.9508 40.6742C30.3025 41.0258 30.5 41.5027 30.5 42V46.6875C30.5 48.428 29.8086 50.0972 28.5779 51.3279C27.3472 52.5586 25.678 53.25 23.9375 53.25H7.0625C5.32202 53.25 3.65282 52.5586 2.42211 51.3279C1.1914 50.0972 0.5 48.428 0.5 46.6875V7.3125C0.5 3.69 3.44 0.75 7.0625 0.75ZM23 49.5H23.9375C24.6834 49.5 25.3988 49.2037 25.9262 48.6762C26.4537 48.1488 26.75 47.4334 26.75 46.6875V45.75H24.875C24.3777 45.75 23.9008 45.9475 23.5492 46.2992C23.1975 46.6508 23 47.1277 23 47.625V49.5ZM23.7875 42.105C22.9531 41.4024 22.2824 40.5257 21.8224 39.5366C21.3625 38.5474 21.1245 37.4696 21.125 36.3787V33.4012L20.4013 32.6775C19.477 33.474 18.3723 34.033 17.1831 34.306C15.9939 34.5789 14.7561 34.5577 13.577 34.244C12.3979 33.9303 11.3131 33.3337 10.4167 32.5059C9.5204 31.6781 8.83954 30.6441 8.43323 29.4936C8.02693 28.3431 7.90745 27.1109 8.08515 25.9038C8.26285 24.6966 8.73238 23.5511 9.45299 22.5665C10.1736 21.5819 11.1236 20.788 12.2204 20.2536C13.3173 19.7193 14.528 19.4606 15.7475 19.5C16.3324 18.8196 17.0515 18.2672 17.8597 17.8776C18.6679 17.4879 19.5479 17.2693 20.4446 17.2355C21.3412 17.2018 22.2351 17.3535 23.0704 17.6812C23.9057 18.0089 24.6643 18.5055 25.2987 19.14L26.75 20.595V12H24.875C23.3832 12 21.9524 11.4074 20.8975 10.3525C19.8426 9.29758 19.25 7.86684 19.25 6.375V4.5H11.75V6.375C11.75 7.86684 11.1574 9.29758 10.1025 10.3525C9.04758 11.4074 7.61684 12 6.125 12H4.25V42H6.125C7.61684 42 9.04758 42.5926 10.1025 43.6475C11.1574 44.7024 11.75 46.1332 11.75 47.625V49.5H19.25V47.625C19.2497 46.3217 19.7021 45.0588 20.5297 44.052C21.3573 43.0452 22.5088 42.357 23.7875 42.105ZM24.875 8.25H26.75V7.3125C26.75 6.56658 26.4537 5.85121 25.9262 5.32376C25.3988 4.79632 24.6834 4.5 23.9375 4.5H23V6.375C23 6.87228 23.1975 7.34919 23.5492 7.70082C23.9008 8.05246 24.3777 8.25 24.875 8.25ZM4.25 45.75V46.6875C4.25 48.24 5.51 49.5 7.0625 49.5H8V47.625C8 47.1277 7.80246 46.6508 7.45082 46.2992C7.09919 45.9475 6.62228 45.75 6.125 45.75H4.25ZM17.735 30.0113L16.085 28.3612C15.4463 27.7255 14.947 26.9637 14.6191 26.1244C14.2911 25.285 14.1415 24.3866 14.18 23.4862C13.6794 23.6762 13.2253 23.9712 12.8482 24.3514C12.4711 24.7315 12.1798 25.188 11.9938 25.6902C11.8079 26.1923 11.7317 26.7284 11.7703 27.2625C11.8089 27.7966 11.9614 28.3162 12.2176 28.7864C12.4737 29.2566 12.8276 29.6665 13.2554 29.9885C13.6833 30.3105 14.1751 30.5371 14.6978 30.6531C15.2205 30.7692 15.7621 30.7719 16.2859 30.6612C16.8098 30.5505 17.3039 30.3289 17.735 30.0113Z" fill="white"/>
</svg>
