<svg width="55" height="55" viewBox="0 0 55 55" fill="none" xmlns="http://www.w3.org/2000/svg">
<g opacity="0.7">
<path d="M5.92308 9.84615C4.88261 9.84615 3.88476 10.2595 3.14904 10.9952C2.41332 11.7309 2 12.7288 2 13.7692V49.0769C2 50.1174 2.41332 51.1152 3.14904 51.851C3.88476 52.5867 4.88261 53 5.92308 53H49.0769C50.1174 53 51.1152 52.5867 51.851 51.851C52.5867 51.1152 53 50.1174 53 49.0769V13.7692C53 12.7288 52.5867 11.7309 51.851 10.9952C51.1152 10.2595 50.1174 9.84615 49.0769 9.84615H41.2308M13.7692 2V17.6923M41.2308 2V17.6923M13.7692 9.84615H33.3846" stroke="#FDFDFD" stroke-width="3" stroke-linecap="round" stroke-linejoin="round"/>
<path d="M15.7305 35.3463L23.5766 41.2309L37.3074 25.5386" stroke="#FDFDFD" stroke-width="3" stroke-linecap="round" stroke-linejoin="round"/>
</g>
</svg>
