<svg width="50" height="48" viewBox="0 0 50 48" fill="none" xmlns="http://www.w3.org/2000/svg">
<path d="M33.332 31.3337C33.332 29.0316 26.8029 27.167 18.7487 27.167M33.332 31.3337C33.332 33.6357 26.8029 35.5003 18.7487 35.5003C10.6945 35.5003 4.16536 33.6357 4.16536 31.3337M33.332 31.3337V41.6191C33.332 43.992 26.8029 45.917 18.7487 45.917C10.6945 45.917 4.16536 43.9941 4.16536 41.6191V31.3337M33.332 31.3337C41.2987 31.3337 47.9154 29.2774 47.9154 27.167V6.33366M18.7487 27.167C10.6945 27.167 4.16536 29.0316 4.16536 31.3337M18.7487 27.167C9.54453 27.167 2.08203 25.1107 2.08203 23.0003V12.5837M18.7487 8.41699C9.54453 8.41699 2.08203 10.2816 2.08203 12.5837M2.08203 12.5837C2.08203 14.8857 9.54453 16.7503 18.7487 16.7503C18.7487 18.8607 25.5258 20.917 33.4924 20.917C41.457 20.917 47.9154 18.8607 47.9154 16.7503M47.9154 6.33366C47.9154 4.03158 41.457 2.16699 33.4924 2.16699C25.5258 2.16699 19.0695 4.03158 19.0695 6.33366M47.9154 6.33366C47.9154 8.63574 41.457 10.5003 33.4924 10.5003C25.5279 10.5003 19.0695 8.63574 19.0695 6.33366M19.0695 6.33366V27.5128" stroke="white" stroke-width="4"/>
</svg>
