<svg width="74" height="74" viewBox="0 0 74 74" fill="none" xmlns="http://www.w3.org/2000/svg">
<circle cx="37" cy="37" r="37" fill="url(#paint0_linear_470_185)"/>
<path d="M37.4471 22.756V52.0238M44.7811 31.2924C44.7811 27.9266 41.4979 25.195 37.4471 25.195C33.3964 25.195 30.1132 27.9266 30.1132 31.2924C30.1132 34.6582 33.3964 37.3899 37.4471 37.3899C41.4979 37.3899 44.7811 40.1216 44.7811 43.4874C44.7811 46.8532 41.4979 49.5848 37.4471 49.5848C33.3964 49.5848 30.1132 46.8532 30.1132 43.4874" stroke="#000F0E" stroke-width="2.9375" stroke-linecap="round"/>
<path d="M25.2232 16.2634C28.9379 14.1193 33.1549 12.9934 37.4464 13C50.9482 13 61.8929 23.9194 61.8929 37.3899C61.8929 50.8604 50.9482 61.7798 37.4464 61.7798C23.9447 61.7798 13 50.8604 13 37.3899C13 32.9485 14.1905 28.7803 16.2709 25.195" stroke="#000F0E" stroke-width="2.9375" stroke-linecap="round"/>
<defs>
<linearGradient id="paint0_linear_470_185" x1="0" y1="0" x2="74" y2="74" gradientUnits="userSpaceOnUse">
<stop stop-color="#00CCC1"/>
<stop offset="1" stop-color="#C5C5C5"/>
</linearGradient>
</defs>
</svg>
