<svg width="40" height="42" viewBox="0 0 40 42" fill="none" xmlns="http://www.w3.org/2000/svg">
<path d="M2.47 19.12L36.97 3.43M36.97 3.43L30.52 1M36.97 3.43L34.57 9.88M38.5 40.03H31V19.03C31 18.6322 31.158 18.2506 31.4393 17.9693C31.7206 17.688 32.1022 17.53 32.5 17.53H37C37.3978 17.53 37.7794 17.688 38.0607 17.9693C38.342 18.2506 38.5 18.6322 38.5 19.03V40.03ZM23.5 40.03H16V23.53C16 23.1322 16.158 22.7506 16.4393 22.4693C16.7206 22.188 17.1022 22.03 17.5 22.03H22C22.3978 22.03 22.7794 22.188 23.0607 22.4693C23.342 22.7506 23.5 23.1322 23.5 23.53V40.03ZM8.5 40.03H1V28.03C1 27.6322 1.15804 27.2506 1.43934 26.9693C1.72064 26.688 2.10218 26.53 2.5 26.53H7C7.39782 26.53 7.77936 26.688 8.06066 26.9693C8.34196 27.2506 8.5 27.6322 8.5 28.03V40.03Z" stroke="#fdfdfd" stroke-width="2" stroke-linecap="round" stroke-linejoin="round"/>
</svg>
