<svg width="126" height="126" viewBox="0 0 126 126" fill="none" xmlns="http://www.w3.org/2000/svg">
<path fill-rule="evenodd" clip-rule="evenodd" d="M0.949219 63.0002C0.949219 71.1487 2.55419 79.2174 5.67249 86.7457C8.7908 94.274 13.3614 101.114 19.1232 106.876C24.8851 112.638 31.7255 117.209 39.2537 120.327C46.782 123.445 54.8507 125.05 62.9992 125.05C71.1477 125.05 79.2165 123.445 86.7447 120.327C94.273 117.209 101.113 112.638 106.875 106.876C112.637 101.114 117.208 94.274 120.326 86.7457C123.444 79.2174 125.049 71.1487 125.049 63.0002C125.049 46.5435 118.512 30.7609 106.875 19.1242C95.2386 7.48759 79.4559 0.950195 62.9992 0.950195C46.5425 0.950195 30.7599 7.48759 19.1232 19.1242C7.48661 30.7609 0.949219 46.5435 0.949219 63.0002ZM117.749 63.0002C117.749 77.5208 111.981 91.4467 101.713 101.714C91.4457 111.982 77.5198 117.75 62.9992 117.75C48.4786 117.75 34.5527 111.982 24.2851 101.714C14.0175 91.4467 8.24922 77.5208 8.24922 63.0002C8.24922 48.4796 14.0175 34.5537 24.2851 24.2861C34.5527 14.0185 48.4786 8.25019 62.9992 8.25019C77.5198 8.25019 91.4457 14.0185 101.713 24.2861C111.981 34.5537 117.749 48.4796 117.749 63.0002Z" fill="#34CDC7"/>
<path fill-rule="evenodd" clip-rule="evenodd" d="M37.4492 63.0001C37.4492 95.0909 47.9758 121.4 62.9992 121.4C78.0226 121.4 88.5492 95.0909 88.5492 63.0001C88.5492 30.9093 78.0226 4.6001 62.9992 4.6001C47.9758 4.6001 37.4492 30.9093 37.4492 63.0001ZM81.2492 63.0001C81.2492 91.3898 72.1607 114.1 62.9992 114.1C53.8377 114.1 44.7492 91.3898 44.7492 63.0001C44.7492 34.6104 53.8377 11.9001 62.9992 11.9001C72.1607 11.9001 81.2492 34.6104 81.2492 63.0001Z" fill="#34CDC7"/>
<path d="M17.2671 28.7779L22.1581 23.3613C22.9392 24.0621 23.7714 24.7483 24.662 25.4126C34.2834 32.625 49.4674 37.0196 66.0165 37.0196C80.1274 37.0196 93.2966 33.8295 102.918 28.3326C105.135 27.0784 107.229 25.6193 109.174 23.9745L113.919 29.5225C111.744 31.384 109.276 33.0995 106.546 34.6617C95.764 40.8302 81.3465 44.3196 66.0165 44.3196C47.9855 44.3196 31.2539 39.4797 20.282 31.2526C19.2394 30.472 18.2334 29.6511 17.2671 28.7779ZM17.2671 97.3103L22.1581 102.712C22.9392 102.012 23.7714 101.325 24.662 100.668C34.2834 93.4559 49.4674 89.0613 66.0165 89.0613C80.1274 89.0613 93.2966 92.2441 102.918 97.7483C105.261 99.0915 107.356 100.552 109.174 102.099L113.919 96.5511C111.627 94.6115 109.159 92.8909 106.546 91.4119C95.764 85.2507 81.3465 81.7613 66.0165 81.7613C47.9855 81.7613 31.2539 86.6012 20.282 94.821C19.2162 95.624 18.2088 96.4562 17.2671 97.3103ZM4.60156 66.6503V59.3503H121.402V66.6503H4.60156Z" fill="#34CDC7"/>
</svg>
