<svg width="219" height="219" viewBox="0 0 219 219" fill="none" xmlns="http://www.w3.org/2000/svg">
<path fill-rule="evenodd" clip-rule="evenodd" d="M25 109C25 120.162 27.1986 131.215 31.4702 141.528C35.7419 151.841 42.0029 161.211 49.8959 169.104C57.7889 176.997 67.1592 183.258 77.4719 187.53C87.7846 191.801 98.8376 194 110 194C121.162 194 132.215 191.801 142.528 187.53C152.841 183.258 162.211 176.997 170.104 169.104C177.997 161.211 184.258 151.841 188.53 141.528C192.801 131.215 195 120.162 195 109C195 86.4566 186.045 64.8365 170.104 48.8959C154.163 32.9553 132.543 24 110 24C87.4566 24 65.8365 32.9553 49.8959 48.8959C33.9553 64.8365 25 86.4566 25 109ZM185 109C185 128.891 177.098 147.968 163.033 162.033C148.968 176.098 129.891 184 110 184C90.1088 184 71.0322 176.098 56.967 162.033C42.9018 147.968 35 128.891 35 109C35 89.1088 42.9018 70.0322 56.967 55.967C71.0322 41.9018 90.1088 34 110 34C129.891 34 148.968 41.9018 163.033 55.967C177.098 70.0322 185 89.1088 185 109Z" fill="#34CDC7"/>
<path fill-rule="evenodd" clip-rule="evenodd" d="M75 109C75 152.96 89.42 189 110 189C130.58 189 145 152.96 145 109C145 65.04 130.58 29 110 29C89.42 29 75 65.04 75 109ZM135 109C135 147.89 122.55 179 110 179C97.45 179 85 147.89 85 109C85 70.11 97.45 39 110 39C122.55 39 135 70.11 135 109Z" fill="#34CDC7"/>
<path d="M47.3532 62.1199L54.0532 54.7C55.1232 55.66 56.2632 56.5999 57.4832 57.5099C70.6632 67.3899 91.4632 73.4099 114.133 73.4099C133.463 73.4099 151.503 69.0399 164.683 61.5099C167.72 59.7918 170.589 57.793 173.253 55.5399L179.753 63.1399C176.773 65.6899 173.393 68.0399 169.653 70.1799C154.883 78.63 135.133 83.4099 114.133 83.4099C89.4332 83.4099 66.5132 76.7799 51.4832 65.5099C50.055 64.4406 48.6769 63.3161 47.3532 62.1199ZM47.3532 156L54.0532 163.4C55.1232 162.44 56.2632 161.5 57.4832 160.6C70.6632 150.72 91.4632 144.7 114.133 144.7C133.463 144.7 151.503 149.06 164.683 156.6C167.893 158.44 170.763 160.44 173.253 162.56L179.753 154.96C176.614 152.303 173.232 149.946 169.653 147.92C154.883 139.48 135.133 134.7 114.133 134.7C89.4332 134.7 66.5132 141.33 51.4832 152.59C50.0232 153.69 48.6432 154.83 47.3532 156ZM30.0032 114V104H190.003V114H30.0032Z" fill="#34CDC7"/>
</svg>
