<svg width="114" height="113" viewBox="0 0 114 113" fill="none" xmlns="http://www.w3.org/2000/svg">
<path d="M84.7766 81.8779C83.5524 78.1112 80.0211 75.3333 75.8307 75.3333H71.1224V61.2083C71.1224 59.9596 70.6263 58.762 69.7434 57.879C68.8604 56.996 67.6628 56.5 66.4141 56.5H38.1641V47.0833H47.5807C48.8295 47.0833 50.027 46.5872 50.91 45.7043C51.793 44.8213 52.2891 43.6237 52.2891 42.375V32.9583H61.7057C64.2032 32.9583 66.5983 31.9662 68.3643 30.2002C70.1303 28.4342 71.1224 26.0391 71.1224 23.5416V21.6112C76.7558 23.8823 81.755 27.4847 85.692 32.11C89.629 36.7353 92.3866 42.2457 93.7287 48.1696C95.0708 54.0934 94.9575 60.2543 93.3984 66.1247C91.8394 71.9952 88.881 77.4005 84.7766 81.8779ZM52.2891 93.837C33.6911 91.53 19.3307 75.71 19.3307 56.5C19.3307 53.5808 19.7074 50.7558 20.3195 48.072L42.8724 70.625V75.3333C42.8724 77.8307 43.8645 80.2259 45.6305 81.9919C47.3964 83.7578 49.7916 84.75 52.2891 84.75M56.9974 9.41663C50.8143 9.41663 44.6918 10.6345 38.9794 13.0006C33.267 15.3668 28.0765 18.8349 23.7045 23.207C14.8746 32.0369 9.91406 44.0127 9.91406 56.5C9.91406 68.9872 14.8746 80.9631 23.7045 89.7929C28.0765 94.165 33.267 97.6331 38.9794 99.9993C44.6918 102.365 50.8143 103.583 56.9974 103.583C69.4847 103.583 81.4605 98.6227 90.2903 89.7929C99.1202 80.9631 104.081 68.9872 104.081 56.5C104.081 50.3169 102.863 44.1944 100.497 38.4819C98.1306 32.7695 94.6624 27.5791 90.2903 23.207C85.9182 18.8349 80.7278 15.3668 75.0154 13.0006C69.303 10.6345 63.1805 9.41663 56.9974 9.41663Z" fill="#5DCDC8"/>
</svg>
