<svg width="100" height="100" viewBox="0 0 100 100" fill="none" xmlns="http://www.w3.org/2000/svg">
<path d="M25.0026 15.1146C23.0722 16.457 21.4955 18.2468 20.4071 20.3311C19.3187 22.4153 18.7511 24.732 18.7526 27.0833C18.7513 29.5997 19.4014 32.0735 20.6398 34.264C21.8781 36.4545 23.6625 38.287 25.8193 39.5833M75.0026 15.1146C76.933 16.457 78.5098 18.2468 79.5981 20.3311C80.6865 22.4153 81.2542 24.732 81.2526 27.0833C81.2542 29.4346 80.6865 31.7514 79.5981 33.8356C78.5098 35.9198 76.933 37.7096 75.0026 39.0521M91.6693 87.5V85C91.6693 75.6667 91.6693 71 89.8526 67.4333C88.2547 64.2974 85.7052 61.7479 82.5693 60.15M8.33594 87.5V85C8.33594 75.6667 8.33594 71 10.1526 67.4333C11.7505 64.2974 14.3 61.7479 17.4359 60.15M50.0026 41.6667C51.9177 41.6667 53.8141 41.2895 55.5834 40.5566C57.3527 39.8237 58.9604 38.7495 60.3146 37.3953C61.6688 36.0411 62.743 34.4335 63.4759 32.6641C64.2087 30.8948 64.5859 28.9984 64.5859 27.0833C64.5859 25.1682 64.2087 23.2719 63.4759 21.5025C62.743 19.7332 61.6688 18.1255 60.3146 16.7714C58.9604 15.4172 57.3527 14.343 55.5834 13.6101C53.8141 12.8772 51.9177 12.5 50.0026 12.5C46.1349 12.5 42.4255 14.0365 39.6906 16.7714C36.9557 19.5063 35.4193 23.2156 35.4193 27.0833C35.4193 30.9511 36.9557 34.6604 39.6906 37.3953C42.4255 40.1302 46.1349 41.6667 50.0026 41.6667ZM25.0026 83.3333V87.5H75.0026V83.3333C75.0026 75.5687 75.0026 71.6854 73.7339 68.6208C72.0418 64.5373 68.7969 61.2932 64.713 59.6021C61.6505 58.3333 57.7672 58.3333 50.0026 58.3333C42.238 58.3333 38.3547 58.3333 35.2922 59.6021C33.2698 60.4397 31.4323 61.6674 29.8845 63.2152C28.3367 64.763 27.1089 66.6006 26.2714 68.6229C25.0026 71.6833 25.0026 75.5687 25.0026 83.3333Z" stroke="#5DCDC8" stroke-width="5" stroke-linecap="round" stroke-linejoin="round"/>
</svg>
