<svg width="66" height="66" viewBox="0 0 66 66" fill="none" xmlns="http://www.w3.org/2000/svg">
<circle cx="33" cy="33" r="33" fill="url(#paint0_linear_470_175)"/>
<path d="M27.553 19.4011C27.553 17.9192 28.127 16.4979 29.1487 15.4501C30.1703 14.4022 31.556 13.8135 33.0009 13.8135C34.4458 13.8135 35.8315 14.4022 36.8532 15.4501C37.8749 16.4979 38.4489 17.9192 38.4489 19.4011C38.4489 20.883 37.8749 22.3043 36.8532 23.3522C35.8315 24.4 34.4458 24.9887 33.0009 24.9887C31.556 24.9887 30.1703 24.4 29.1487 23.3522C28.127 22.3043 27.553 20.883 27.553 19.4011ZM33.0009 16.6101C32.6436 16.6101 32.2897 16.6823 31.9596 16.8225C31.6294 16.9628 31.3294 17.1684 31.0767 17.4276C30.824 17.6867 30.6236 17.9944 30.4868 18.333C30.3501 18.6716 30.2797 19.0346 30.2797 19.4011C30.2797 19.7676 30.3501 20.1306 30.4868 20.4692C30.6236 20.8078 30.824 21.1155 31.0767 21.3747C31.3294 21.6338 31.6294 21.8394 31.9596 21.9797C32.2897 22.1199 32.6436 22.1921 33.0009 22.1921C33.7226 22.1921 34.4148 21.8981 34.9251 21.3747C35.4355 20.8512 35.7222 20.1413 35.7222 19.4011C35.7222 18.6609 35.4355 17.951 34.9251 17.4276C34.4148 16.9041 33.7226 16.6101 33.0009 16.6101ZM41.181 20.7994C41.181 20.2485 41.2868 19.703 41.4923 19.1941C41.6979 18.6851 41.9992 18.2227 42.379 17.8332C42.7587 17.4436 43.2096 17.1346 43.7059 16.9238C44.2021 16.713 44.7339 16.6045 45.271 16.6045C45.8082 16.6045 46.34 16.713 46.8362 16.9238C47.3325 17.1346 47.7834 17.4436 48.1631 17.8332C48.5429 18.2227 48.8442 18.6851 49.0498 19.1941C49.2553 19.703 49.3611 20.2485 49.3611 20.7994C49.3611 21.912 48.9302 22.979 48.1631 23.7657C47.3961 24.5524 46.3558 24.9943 45.271 24.9943C44.1863 24.9943 43.146 24.5524 42.379 23.7657C41.6119 22.979 41.181 21.912 41.181 20.7994ZM45.271 19.4011C44.9095 19.4011 44.5627 19.5484 44.307 19.8107C44.0513 20.0729 43.9077 20.4286 43.9077 20.7994C43.9077 21.1703 44.0513 21.5259 44.307 21.7882C44.5627 22.0504 44.9095 22.1977 45.271 22.1977C45.6326 22.1977 45.9794 22.0504 46.2351 21.7882C46.4908 21.5259 46.6344 21.1703 46.6344 20.7994C46.6344 20.4286 46.4908 20.0729 46.2351 19.8107C45.9794 19.5484 45.6326 19.4011 45.271 19.4011ZM20.7308 16.6045C19.6461 16.6045 18.6057 17.0465 17.8387 17.8332C17.0717 18.6199 16.6408 19.6868 16.6408 20.7994C16.6408 21.912 17.0717 22.979 17.8387 23.7657C18.6057 24.5524 19.6461 24.9943 20.7308 24.9943C21.8155 24.9943 22.8559 24.5524 23.6229 23.7657C24.3899 22.979 24.8208 21.912 24.8208 20.7994C24.8208 19.6868 24.3899 18.6199 23.6229 17.8332C22.8559 17.0465 21.8155 16.6045 20.7308 16.6045ZM19.3675 20.7994C19.3675 20.4286 19.5111 20.0729 19.7668 19.8107C20.0224 19.5484 20.3692 19.4011 20.7308 19.4011C21.0924 19.4011 21.4392 19.5484 21.6948 19.8107C21.9505 20.0729 22.0941 20.4286 22.0941 20.7994C22.0941 21.1703 21.9505 21.5259 21.6948 21.7882C21.4392 22.0504 21.0924 22.1977 20.7308 22.1977C20.3692 22.1977 20.0224 22.0504 19.7668 21.7882C19.5111 21.5259 19.3675 21.1703 19.3675 20.7994ZM22.8249 27.7909C22.345 28.6407 22.0929 29.6055 22.0941 30.5875H16.6408V37.5791C16.6405 38.2747 16.809 38.9594 17.1309 39.5717C17.4529 40.184 17.9182 40.7045 18.4851 41.0864C19.0519 41.4684 19.7025 41.6998 20.3782 41.7597C21.0539 41.8197 21.7335 41.7064 22.3559 41.43C22.5577 42.3557 22.874 43.2394 23.283 44.0644C22.2481 44.493 21.1265 44.6544 20.0166 44.5344C18.9067 44.4145 17.8424 44.0169 16.9174 43.3765C15.9923 42.7362 15.2347 41.8727 14.711 40.8618C14.1873 39.851 13.9137 38.7237 13.9141 37.5791V30.5875C13.9141 29.8458 14.2013 29.1345 14.7127 28.61C15.224 28.0856 15.9176 27.7909 16.6408 27.7909H22.8249ZM42.7189 44.0644C43.7537 44.493 44.8754 44.6544 45.9853 44.5344C47.0952 44.4145 48.1594 44.0169 49.0845 43.3765C50.0096 42.7362 50.7672 41.8727 51.2908 40.8618C51.8145 39.851 52.0882 38.7237 52.0878 37.5791V30.5875C52.0878 29.8458 51.8005 29.1345 51.2892 28.61C50.7778 28.0856 50.0843 27.7909 49.3611 27.7909H43.177C43.6405 28.6131 43.9077 29.5668 43.9077 30.5875H49.3611V37.5791C49.3613 38.2747 49.1929 38.9594 48.8709 39.5717C48.549 40.184 48.0836 40.7045 47.5168 41.0864C46.9499 41.4684 46.2994 41.6998 45.6237 41.7597C44.948 41.8197 44.2683 41.7064 43.6459 41.43C43.4414 42.3557 43.1279 43.2394 42.7189 44.0644ZM27.5475 27.7881C26.8244 27.7881 26.1308 28.0828 25.6195 28.6072C25.1081 29.1317 24.8208 29.843 24.8208 30.5847V38.9774C24.8208 41.2025 25.6827 43.3365 27.2167 44.9099C28.7508 46.4833 30.8314 47.3672 33.0009 47.3672C35.1704 47.3672 37.2511 46.4833 38.7851 44.9099C40.3192 43.3365 41.181 41.2025 41.181 38.9774V30.5875C41.181 29.8458 40.8937 29.1345 40.3824 28.61C39.871 28.0856 39.1775 27.7909 38.4543 27.7909H27.5475V27.7881ZM27.5475 30.5847H38.4543V38.9774C38.4543 40.4608 37.8798 41.8834 36.8571 42.9324C35.8343 43.9813 34.4473 44.5706 33.0009 44.5706C31.5546 44.5706 30.1675 43.9813 29.1448 42.9324C28.1221 41.8834 27.5475 40.4608 27.5475 38.9774V30.5875V30.5847Z" fill="#000F0E"/>
<defs>
<linearGradient id="paint0_linear_470_175" x1="0" y1="0" x2="66" y2="66" gradientUnits="userSpaceOnUse">
<stop stop-color="#00CCC1"/>
<stop offset="1" stop-color="#C5C5C5"/>
</linearGradient>
</defs>
</svg>
