<svg width="39" height="39" viewBox="0 0 39 39" fill="none" xmlns="http://www.w3.org/2000/svg">
<path d="M19.5 35.75C15.7354 34.8021 12.6273 32.6419 10.1758 29.2695C7.72417 25.8971 6.49892 22.1531 6.5 18.0375V8.125L19.5 3.25L32.5 8.125V18.0375C32.5 22.1542 31.2742 25.8987 28.8226 29.2711C26.371 32.6435 23.2635 34.8032 19.5 35.75ZM19.5 32.3375C22.1271 31.525 24.3208 29.92 26.0812 27.5226C27.8417 25.1252 28.8708 22.451 29.1688 19.5H19.5V6.70312L9.75 10.3594V18.7688C9.75 18.9583 9.77708 19.2021 9.83125 19.5H19.5V32.3375Z" fill="white"/>
</svg>
