<svg width="127" height="104" viewBox="0 0 127 104" fill="none" xmlns="http://www.w3.org/2000/svg">
<path d="M62.2423 35.7628C62.2423 33.9608 63.7032 32.5 65.5052 32.5C67.3072 32.5 68.768 33.9608 68.768 35.7628V100.737C68.768 102.539 67.3072 104 65.5052 104C63.7032 104 62.2423 102.539 62.2423 100.737V35.7628ZM33.2032 10.0752C34.4855 11.3525 34.4742 13.4206 33.2966 14.7951C32.209 16.0644 31.2024 17.3957 30.2766 18.7891C28.7472 21.0911 27.4387 23.5286 26.351 26.1016C25.2634 28.6745 24.4647 31.2982 23.9549 33.9727C23.4451 36.6471 23.1562 39.4062 23.0882 42.25C23.0882 45.026 23.3601 47.7682 23.9039 50.4766C24.4477 53.1849 25.2634 55.8255 26.351 58.3984C27.4387 60.9714 28.7302 63.3919 30.2257 65.6602C31.145 67.0546 32.1671 68.4042 33.292 69.7091C34.4738 71.0799 34.4856 73.1475 33.2032 74.4248C31.9247 75.6983 29.8467 75.7015 28.6559 74.3456C25.1117 70.3102 22.3212 65.8408 20.2842 60.9375C17.837 55.0469 16.5965 48.8177 16.5625 42.25C16.5625 35.7161 17.7861 29.5039 20.2332 23.6133C22.273 18.7033 25.0802 14.2166 28.6548 10.1534C29.8468 8.79853 31.9247 8.80168 33.2032 10.0752ZM97.8072 10.0752C99.0857 8.80171 101.164 8.79854 102.354 10.1544C105.899 14.1898 108.689 18.6592 110.726 23.5625C113.173 29.4531 114.414 35.6823 114.448 42.25C114.448 48.7839 113.224 54.9961 110.777 60.8867C108.737 65.7967 105.93 70.2834 102.356 74.3466C101.164 75.7015 99.0857 75.6983 97.8072 74.4248C96.5248 73.1475 96.5362 71.0794 97.7138 69.7049C98.8014 68.4356 99.808 67.1043 100.734 65.7109C102.263 63.4089 103.572 60.9714 104.659 58.3984C105.747 55.8255 106.546 53.2018 107.055 50.5273C107.565 47.8529 107.854 45.0938 107.922 42.25C107.922 39.474 107.65 36.7318 107.106 34.0234C106.563 31.3151 105.747 28.6745 104.659 26.1016C103.572 23.5286 102.28 21.1081 100.785 18.8398C99.8653 17.4454 98.8432 16.0958 97.7184 14.7909C96.5366 13.4201 96.5248 11.3525 97.8072 10.0752ZM83.9697 23.8582C85.2332 22.5996 87.2933 22.5887 88.4148 23.9752C90.1456 26.115 91.5499 28.4657 92.6276 31.0273C94.1231 34.582 94.8708 38.3229 94.8708 42.25C94.8708 46.1432 94.1231 49.8672 92.6276 53.4219C91.5488 55.9861 90.1429 58.3477 88.4097 60.5067C87.2919 61.8992 85.2278 61.895 83.9627 60.6348C82.696 59.3731 82.7199 57.3355 83.7918 55.9045C84.9222 54.3954 85.8452 52.7553 86.5607 50.9844C87.6823 48.2083 88.2601 45.2969 88.2941 42.25C88.2941 39.237 87.7333 36.3424 86.6117 33.5664C85.8921 31.7854 84.9557 30.1297 83.8024 28.5995C82.723 27.1674 82.6991 25.1237 83.9697 23.8582ZM47.0477 23.8652C48.3144 25.1269 48.2914 27.1649 47.2145 28.5921C46.075 30.1022 45.1364 31.7434 44.3987 33.5156C43.2431 36.2917 42.6653 39.2031 42.6653 42.25C42.6653 45.263 43.2431 48.1576 44.3987 50.9336C45.1397 52.7138 46.0834 54.3686 47.2297 55.8982C48.3035 57.3309 48.3182 59.3693 47.0497 60.6328C45.7812 61.8963 43.7129 61.9074 42.5875 60.5149C40.8604 58.3778 39.4588 56.0304 38.3828 53.4727C36.8873 49.918 36.1396 46.1771 36.1396 42.25C36.1396 38.3568 36.8873 34.6328 38.3828 31.0781C39.4616 28.5139 40.8675 26.1523 42.6007 23.9933C43.7185 22.6008 45.7826 22.605 47.0477 23.8652Z" fill="#5DCDC8"/>
</svg>
