<svg width="80" height="80" viewBox="0 0 80 80" fill="none" xmlns="http://www.w3.org/2000/svg">
<path d="M40.0003 6.66699C21.6003 6.66699 6.66699 21.6003 6.66699 40.0003C6.66699 58.4003 21.6003 73.3337 40.0003 73.3337C58.4003 73.3337 73.3337 58.4003 73.3337 40.0003C73.3337 21.6003 58.4003 6.66699 40.0003 6.66699ZM55.467 29.3337C54.967 34.6003 52.8003 47.4003 51.7003 53.3003C51.2337 55.8003 50.3003 56.6337 49.4337 56.7337C47.5003 56.9003 46.0337 55.467 44.167 54.2337C41.2337 52.3003 39.567 51.1003 36.7337 49.2337C33.4337 47.067 35.567 45.867 37.467 43.9337C37.967 43.4337 46.5003 35.667 46.667 34.967C46.6901 34.861 46.6871 34.7509 46.658 34.6463C46.629 34.5418 46.5748 34.4459 46.5003 34.367C46.3003 34.2003 46.0337 34.267 45.8003 34.3003C45.5003 34.367 40.8337 37.467 31.7337 43.6003C30.4003 44.5003 29.2003 44.967 28.1337 44.9337C26.9337 44.9003 24.667 44.267 22.967 43.7003C20.867 43.0337 19.2337 42.667 19.367 41.5003C19.4337 40.9003 20.267 40.3003 21.8337 39.667C31.567 35.4337 38.0337 32.6337 41.267 31.3003C50.5337 27.4337 52.4337 26.767 53.7003 26.767C53.967 26.767 54.6003 26.8337 55.0003 27.167C55.3337 27.4337 55.4337 27.8003 55.467 28.067C55.4337 28.267 55.5003 28.867 55.467 29.3337Z" fill="white"/>
</svg>
