<svg width="34" height="34" viewBox="0 0 34 34" fill="none" xmlns="http://www.w3.org/2000/svg">
<path fill-rule="evenodd" clip-rule="evenodd" d="M6.5391 12.106L5.9356 14.5214H2.83594C2.55415 14.5214 2.28389 14.6333 2.08464 14.8326C1.88538 15.0319 1.77344 15.3021 1.77344 15.5839C1.77344 15.8657 1.88538 16.1359 2.08464 16.3352C2.28389 16.5345 2.55415 16.6464 2.83594 16.6464H31.1693C31.4511 16.6464 31.7213 16.5345 31.9206 16.3352C32.1198 16.1359 32.2318 15.8657 32.2318 15.5839C32.2318 15.3021 32.1198 15.0319 31.9206 14.8326C31.7213 14.6333 31.4511 14.5214 31.1693 14.5214H28.0696L27.4661 12.106C26.6926 9.0134 26.3073 7.46782 25.1541 6.56682C24.0009 5.66724 22.4072 5.66724 19.2197 5.66724H14.7855C11.598 5.66724 10.0043 5.66724 8.8511 6.56682C7.69794 7.46782 7.31119 9.0134 6.5391 12.106ZM9.21094 29.7506C10.305 29.7505 11.3684 29.3887 12.2354 28.7215C13.1025 28.0543 13.7246 27.1191 14.0049 26.0616L15.5774 25.2753C16.02 25.0541 16.5079 24.939 17.0026 24.939C17.4973 24.939 17.9853 25.0541 18.4278 25.2753L20.0003 26.0616C20.31 27.2243 21.0319 28.2347 22.0314 28.9046C23.0309 29.5746 24.2398 29.8583 25.433 29.703C26.6262 29.5477 27.7222 28.964 28.5169 28.0605C29.3116 27.157 29.7508 25.9955 29.7526 24.7922C29.7545 23.5739 29.3077 22.3975 28.4976 21.4875C27.6875 20.5776 26.5707 19.9977 25.3603 19.8586C24.1499 19.7196 22.9307 20.031 21.9353 20.7335C20.9399 21.436 20.2379 22.4804 19.9634 23.6674L19.3784 23.3756C18.6407 23.0068 17.8273 22.8148 17.0026 22.8148C16.1779 22.8148 15.3645 23.0068 14.6269 23.3756L14.0418 23.6674C13.7647 22.4828 13.0619 21.4414 12.0671 20.7411C11.0723 20.0409 9.85478 19.7307 8.64617 19.8696C7.43757 20.0085 6.32216 20.5867 5.51208 21.4943C4.702 22.402 4.25376 23.5757 4.2526 24.7922C4.2526 26.1073 4.775 27.3684 5.70487 28.2983C6.63473 29.2282 7.89591 29.7506 9.21094 29.7506Z" fill="white"/>
</svg>
