<svg width="1230" height="371" viewBox="0 0 1230 371" fill="none" xmlns="http://www.w3.org/2000/svg">
<path d="M720.916 81.0387L742.5 68.5774L764.084 81.0387V105.961L742.5 118.423L720.916 105.961V81.0387Z" stroke="white" stroke-opacity="0.06"/>
<path d="M983.639 337.539L990.5 333.577L997.361 337.539V345.461L990.5 349.423L983.639 345.461V337.539Z" stroke="white" stroke-opacity="0.06"/>
<path d="M809.443 349.539L821.5 342.577L833.557 349.539V363.461L821.5 370.423L809.443 363.461V349.539Z" stroke="white" stroke-opacity="0.06"/>
<path d="M585.175 118.539L595.5 112.577L605.825 118.539V130.461L595.5 136.423L585.175 130.461V118.539Z" stroke="white" stroke-opacity="0.06"/>
<path d="M1203.44 189.539L1215.5 182.577L1227.56 189.539V203.461L1215.5 210.423L1203.44 203.461V189.539Z" stroke="white" stroke-opacity="0.06"/>
<path d="M3.84937 31.7887L25 19.5774L46.1506 31.7887V56.2113L25 68.4226L3.84937 56.2113V31.7887Z" stroke="white" stroke-opacity="0.06"/>
<path d="M239.443 137.539L251.5 130.577L263.557 137.539V151.461L251.5 158.423L239.443 151.461V137.539Z" stroke="white" stroke-opacity="0.06"/>
<path d="M392.438 345.789L398 342.577L403.562 345.789V352.211L398 355.423L392.438 352.211V345.789Z" stroke="white" stroke-opacity="0.06"/>
<path d="M579.443 7.53867L591.5 0.57735L603.557 7.53867V21.4613L591.5 28.4227L579.443 21.4613V7.53867Z" stroke="white" stroke-opacity="0.06"/>
<path d="M53.9067 326.539L62.5 321.577L71.0933 326.539V336.461L62.5 341.423L53.9067 336.461V326.539Z" stroke="white" stroke-opacity="0.06"/>
</svg>
